<svg xmlns="http://www.w3.org/2000/svg" xmlns:xlink="http://www.w3.org/1999/xlink" width="1080" zoomAndPan="magnify" viewBox="0 0 810 1012.49997" height="1350" preserveAspectRatio="xMidYMid meet" version="1.2"><defs><clipPath id="c3d5d66718"><path d="M 0.199219 0 L 809.800781 0 L 809.800781 1012 L 0.199219 1012 Z M 0.199219 0 "/></clipPath><clipPath id="c850fbabc5"><path d="M 148 467 L 683.015625 467 L 683.015625 542 L 148 542 Z M 148 467 "/></clipPath></defs><g id="5920564d23"><g clip-rule="nonzero" clip-path="url(#c3d5d66718)"><path style=" stroke:none;fill-rule:nonzero;fill:#ffffff;fill-opacity:1;" d="M 0.199219 0 L 809.800781 0 L 809.800781 1012 L 0.199219 1012 Z M 0.199219 0 "/><path style=" stroke:none;fill-rule:nonzero;fill:#ffffff;fill-opacity:1;" d="M 0.199219 0 L 809.800781 0 L 809.800781 1012 L 0.199219 1012 Z M 0.199219 0 "/></g><g clip-rule="nonzero" clip-path="url(#c850fbabc5)"><path style=" stroke:none;fill-rule:nonzero;fill:#000000;fill-opacity:1;" d="M 252.117188 505.730469 C 248.867188 489.835938 232.085938 478.582031 215.253906 483.085938 C 204.867188 485.851562 197.992188 492.382812 194.199219 502.253906 C 193.410156 504.316406 193.429688 504.359375 191.308594 504.359375 L 166.21875 504.359375 C 163.617188 504.359375 163.6875 504.421875 163.6875 501.953125 L 163.6875 484.871094 C 163.6875 482.585938 163.726562 482.542969 165.984375 482.542969 L 191.980469 482.542969 C 192.992188 482.542969 193.449219 482.117188 193.449219 481.117188 L 193.449219 469.128906 C 193.449219 468.175781 193.164062 467.605469 192.085938 467.660156 C 191.382812 467.699219 190.675781 467.660156 189.972656 467.660156 L 148.554688 467.660156 L 148.554688 541.46875 C 153.085938 541.507812 157.621094 541.523438 162.152344 541.597656 C 163.386719 541.597656 163.761719 541.09375 163.683594 539.984375 C 163.644531 539.367188 163.683594 538.804688 163.683594 538.1875 L 163.683594 521.671875 C 163.683594 519.277344 163.734375 519.277344 166.199219 519.277344 L 190.988281 519.277344 C 192.988281 519.277344 193.191406 518.882812 194.113281 521.492188 C 199.195312 535.859375 213.367188 544.183594 228.449219 541.296875 L 229.390625 541.105469 C 230.34375 540.898438 231.28125 540.644531 232.207031 540.347656 C 233.132812 540.046875 234.042969 539.703125 234.9375 539.316406 C 235.828125 538.925781 236.699219 538.496094 237.550781 538.019531 C 238.398438 537.546875 239.222656 537.03125 240.023438 536.476562 C 240.824219 535.921875 241.59375 535.328125 242.335938 534.695312 C 243.078125 534.066406 243.785156 533.398438 244.460938 532.699219 C 245.136719 531.996094 245.777344 531.265625 246.378906 530.5 C 246.984375 529.738281 247.550781 528.945312 248.078125 528.128906 C 248.601562 527.308594 249.085938 526.464844 249.53125 525.597656 C 249.972656 524.730469 250.375 523.84375 250.730469 522.9375 C 251.085938 522.03125 251.398438 521.109375 251.664062 520.171875 C 251.929688 519.234375 252.148438 518.289062 252.324219 517.328125 C 252.496094 516.371094 252.621094 515.40625 252.699219 514.4375 C 252.777344 513.464844 252.808594 512.492188 252.789062 511.519531 C 252.773438 510.546875 252.707031 509.574219 252.597656 508.605469 C 252.484375 507.640625 252.324219 506.679688 252.117188 505.730469 Z M 222.992188 527.148438 L 222.808594 527.148438 C 221.8125 527.167969 220.824219 527.09375 219.84375 526.917969 C 218.859375 526.742188 217.90625 526.472656 216.976562 526.109375 C 216.050781 525.75 215.167969 525.296875 214.328125 524.761719 C 213.488281 524.222656 212.707031 523.609375 211.988281 522.917969 C 211.269531 522.230469 210.625 521.476562 210.054688 520.65625 C 209.484375 519.839844 209 518.972656 208.601562 518.0625 C 208.199219 517.148438 207.894531 516.203125 207.679688 515.230469 C 207.464844 514.257812 207.347656 513.273438 207.328125 512.273438 L 207.328125 512.144531 C 207.203125 504.425781 212.8125 496.988281 222.738281 496.671875 C 230.921875 496.417969 237.949219 503.625 238.078125 511.621094 C 238.09375 512.625 238.007812 513.625 237.828125 514.613281 C 237.644531 515.601562 237.367188 516.5625 236.996094 517.496094 C 236.625 518.433594 236.167969 519.320312 235.621094 520.164062 C 235.074219 521.007812 234.449219 521.792969 233.75 522.511719 C 233.050781 523.234375 232.285156 523.878906 231.457031 524.449219 C 230.628906 525.019531 229.753906 525.503906 228.832031 525.902344 C 227.910156 526.300781 226.957031 526.605469 225.972656 526.8125 C 224.992188 527.023438 223.996094 527.136719 222.992188 527.148438 Z M 301.734375 512.050781 L 301.734375 486.277344 C 301.734375 483.808594 301.773438 483.757812 304.199219 483.738281 C 306.925781 483.738281 309.644531 483.777344 312.363281 483.738281 C 313.863281 483.710938 315.210938 483.703125 315.582031 485.589844 C 315.742188 486.40625 316.335938 486.417969 316.949219 486.046875 C 317.941406 485.355469 318.96875 484.726562 320.035156 484.152344 C 325.316406 481.6875 330.699219 482 336.136719 483.648438 C 339.914062 484.851562 343.265625 486.789062 346.199219 489.460938 C 347.035156 490.195312 347.578125 490.179688 348.398438 489.402344 C 353.332031 484.726562 359.429688 482.476562 366.125 482.300781 C 368.5 482.253906 370.832031 482.539062 373.125 483.15625 C 375.414062 483.777344 377.574219 484.707031 379.601562 485.941406 C 386.425781 490.015625 390.542969 496.042969 392.285156 503.691406 C 392.492188 504.878906 392.570312 506.074219 392.519531 507.277344 L 392.519531 537.855469 C 392.519531 540.265625 392.519531 540.320312 390.050781 540.320312 L 379.773438 540.320312 C 377.980469 540.320312 377.925781 540.261719 377.925781 538.472656 L 377.925781 519.875 C 377.925781 515.976562 378.003906 512.078125 377.886719 508.152344 C 377.703125 501.984375 372.222656 496.914062 366 497.046875 C 360.488281 497.171875 355.3125 501.910156 354.945312 507.371094 C 354.738281 510.554688 354.824219 513.761719 354.816406 516.957031 L 354.816406 537.933594 C 354.816406 540.203125 354.78125 540.234375 352.488281 540.246094 C 348.960938 540.273438 345.433594 540.273438 341.90625 540.246094 C 339.84375 540.246094 339.804688 540.199219 339.800781 538.058594 L 339.800781 508.683594 C 339.800781 508.023438 339.746094 507.363281 339.640625 506.710938 C 339.53125 506.058594 339.367188 505.417969 339.148438 504.792969 C 338.933594 504.167969 338.664062 503.566406 338.34375 502.988281 C 338.027344 502.40625 337.660156 501.859375 337.25 501.339844 C 336.835938 500.824219 336.382812 500.34375 335.890625 499.902344 C 335.398438 499.460938 334.871094 499.0625 334.3125 498.710938 C 333.75 498.359375 333.164062 498.058594 332.554688 497.804688 C 331.941406 497.554688 331.3125 497.355469 330.667969 497.207031 C 325.773438 496.078125 320.058594 499.113281 317.839844 503.996094 C 317.105469 505.664062 316.765625 507.40625 316.816406 509.226562 C 316.851562 518.417969 316.816406 527.613281 316.816406 536.804688 L 316.816406 538.902344 C 316.816406 539.71875 316.613281 540.246094 315.65625 540.242188 L 302.960938 540.242188 C 302.082031 540.242188 301.679688 539.890625 301.730469 539.007812 L 301.730469 512.050781 Z M 662.308594 502.09375 C 662.308594 506.789062 662.253906 511.492188 662.308594 516.191406 C 662.457031 527.347656 653.78125 539.234375 639.941406 541.347656 C 632.136719 542.53125 625.003906 540.378906 618.90625 535.214844 C 616.917969 533.542969 616.859375 533.574219 615.082031 535.140625 C 600.839844 547.699219 577.257812 541.347656 572.238281 521.289062 C 571.695312 519.152344 571.421875 516.980469 571.421875 514.773438 L 571.421875 486.28125 C 571.421875 483.757812 571.421875 483.746094 574.109375 483.734375 L 584.089844 483.734375 C 586.363281 483.734375 586.40625 483.789062 586.414062 486.097656 C 586.414062 495.492188 586.464844 504.890625 586.414062 514.285156 C 586.414062 517.734375 587.203125 520.789062 589.695312 523.289062 C 597 530.640625 606.773438 525.816406 608.921875 518.550781 C 609.359375 517 609.5625 515.425781 609.539062 513.816406 L 609.539062 485.03125 C 609.539062 484.183594 609.871094 483.734375 610.773438 483.734375 L 623.171875 483.734375 C 624.199219 483.734375 624.589844 484.238281 624.570312 485.222656 L 624.570312 490.324219 C 624.570312 498.714844 624.519531 507.117188 624.707031 515.507812 C 624.707031 516.226562 624.773438 516.9375 624.910156 517.640625 C 625.042969 518.347656 625.242188 519.03125 625.507812 519.699219 C 625.769531 520.367188 626.09375 521.003906 626.476562 521.613281 C 626.859375 522.21875 627.292969 522.785156 627.785156 523.308594 C 628.273438 523.832031 628.808594 524.308594 629.386719 524.730469 C 629.964844 525.15625 630.578125 525.523438 631.222656 525.832031 C 631.871094 526.140625 632.539062 526.386719 633.234375 526.570312 C 633.925781 526.753906 634.632812 526.871094 635.347656 526.921875 C 639.519531 527.234375 642.972656 525.402344 645.433594 521.984375 C 646.195312 520.925781 646.769531 519.769531 647.15625 518.523438 C 647.542969 517.277344 647.722656 516 647.695312 514.691406 C 647.648438 505.496094 647.695312 496.300781 647.695312 487.101562 L 647.695312 485.003906 C 647.695312 484.152344 648.03125 483.722656 648.929688 483.722656 L 661.027344 483.722656 C 662.140625 483.722656 662.332031 484.382812 662.328125 485.28125 L 662.328125 493.679688 Z M 558.78125 501.707031 L 558.78125 486.117188 C 558.78125 483.757812 558.78125 483.710938 556.5625 483.710938 C 553.640625 483.667969 550.710938 483.785156 547.796875 483.667969 C 547.496094 483.621094 547.199219 483.628906 546.90625 483.699219 C 546.609375 483.765625 546.339844 483.886719 546.089844 484.058594 C 545.84375 484.230469 545.632812 484.441406 545.46875 484.695312 C 545.300781 484.945312 545.1875 485.222656 545.125 485.515625 C 544.976562 485.992188 544.785156 486.453125 544.550781 486.894531 L 544.496094 486.992188 C 544.390625 487.148438 544.246094 487.246094 544.0625 487.285156 C 543.878906 487.324219 543.707031 487.292969 543.546875 487.1875 C 542.929688 486.855469 542.3125 486.484375 541.699219 486.140625 C 540.929688 485.703125 540.148438 485.304688 539.34375 484.9375 C 538.542969 484.574219 537.726562 484.242188 536.894531 483.949219 C 536.0625 483.65625 535.222656 483.402344 534.367188 483.183594 C 533.515625 482.964844 532.652344 482.785156 531.78125 482.640625 C 530.910156 482.5 530.039062 482.398438 529.160156 482.332031 C 528.28125 482.269531 527.398438 482.246094 526.519531 482.257812 C 525.636719 482.273438 524.757812 482.324219 523.882812 482.417969 C 523.003906 482.507812 522.132812 482.640625 521.269531 482.808594 C 520.40625 482.980469 519.550781 483.1875 518.703125 483.433594 C 517.855469 483.675781 517.023438 483.960938 516.199219 484.277344 C 515.378906 484.597656 514.574219 484.953125 513.78125 485.34375 C 512.992188 485.734375 512.222656 486.160156 511.46875 486.621094 C 510.71875 487.082031 509.988281 487.570312 509.277344 488.097656 C 508.570312 488.621094 507.886719 489.175781 507.226562 489.761719 C 506.566406 490.347656 505.933594 490.960938 505.328125 491.601562 C 504.726562 492.242188 504.148438 492.910156 503.605469 493.601562 C 503.058594 494.292969 502.542969 495.007812 502.0625 495.746094 C 501.578125 496.484375 501.128906 497.242188 500.714844 498.019531 C 500.300781 498.800781 499.917969 499.59375 499.574219 500.40625 C 499.230469 501.21875 498.921875 502.042969 498.648438 502.882812 C 498.378906 503.722656 498.144531 504.570312 497.949219 505.429688 C 497.753906 506.289062 497.59375 507.15625 497.476562 508.03125 C 497.355469 508.90625 497.277344 509.78125 497.234375 510.664062 C 497.191406 511.542969 497.191406 512.425781 497.226562 513.304688 C 497.265625 514.1875 497.339844 515.066406 497.453125 515.941406 C 497.566406 516.8125 497.722656 517.683594 497.914062 518.542969 C 498.105469 519.402344 498.332031 520.253906 498.601562 521.09375 C 498.867188 521.933594 499.171875 522.761719 499.511719 523.574219 C 499.851562 524.390625 500.226562 525.1875 500.636719 525.964844 C 501.050781 526.746094 501.492188 527.507812 501.972656 528.25 C 502.449219 528.988281 502.960938 529.707031 503.503906 530.402344 C 504.042969 531.097656 504.617188 531.769531 505.21875 532.414062 C 514.816406 542.609375 530.304688 544.414062 542.265625 537.464844 C 544.367188 536.230469 544.535156 536.230469 545.148438 538.304688 C 545.59375 539.902344 546.382812 540.320312 547.925781 540.265625 C 550.539062 540.203125 553.164062 540.265625 555.785156 540.265625 C 559.039062 540.265625 558.757812 540.554688 558.757812 537.414062 L 558.757812 511.933594 Z M 526.992188 527.144531 C 520.308594 527.191406 511.582031 521.671875 511.660156 511.878906 C 511.660156 510.898438 511.753906 509.929688 511.941406 508.96875 C 512.128906 508.007812 512.410156 507.074219 512.785156 506.167969 C 513.15625 505.261719 513.613281 504.402344 514.15625 503.585938 C 514.699219 502.769531 515.316406 502.015625 516.003906 501.320312 C 516.695312 500.628906 517.449219 500.007812 518.261719 499.460938 C 519.074219 498.917969 519.929688 498.453125 520.835938 498.078125 C 521.738281 497.703125 522.671875 497.417969 523.628906 497.222656 C 524.589844 497.03125 525.558594 496.933594 526.539062 496.929688 L 526.902344 496.929688 C 527.882812 496.90625 528.859375 496.980469 529.824219 497.148438 C 530.792969 497.316406 531.734375 497.578125 532.652344 497.933594 C 533.570312 498.289062 534.441406 498.730469 535.269531 499.257812 C 536.101562 499.785156 536.871094 500.386719 537.582031 501.066406 C 538.292969 501.742188 538.929688 502.484375 539.496094 503.289062 C 540.058594 504.09375 540.539062 504.945312 540.9375 505.84375 C 541.335938 506.746094 541.640625 507.671875 541.855469 508.632812 C 542.066406 509.59375 542.1875 510.5625 542.210938 511.546875 C 542.210938 511.71875 542.210938 511.890625 542.210938 512.070312 C 542.125 521.757812 533.664062 527.09375 526.992188 527.144531 Z M 455.414062 512.066406 L 455.414062 537.835938 C 455.414062 540.230469 455.414062 540.246094 452.914062 540.265625 C 450.195312 540.265625 447.472656 540.191406 444.753906 540.265625 C 443.148438 540.335938 442.019531 540.03125 441.671875 538.265625 C 441.542969 537.652344 441.167969 537.324219 440.402344 537.871094 C 432.222656 543.703125 423.832031 542.460938 415.816406 537.871094 C 407.183594 532.9375 402.714844 525.207031 402.664062 515.191406 C 402.617188 505.605469 402.664062 496.019531 402.664062 486.425781 C 402.664062 483.53125 402.492188 483.703125 405.488281 483.703125 L 414.25 483.703125 C 417.46875 483.703125 417.226562 483.488281 417.242188 486.566406 C 417.242188 495.753906 417.328125 504.9375 417.3125 514.125 C 417.277344 516.242188 417.6875 518.269531 418.546875 520.203125 C 420.484375 524.429688 425.328125 527.441406 429.710938 526.953125 C 430.324219 526.898438 430.925781 526.796875 431.523438 526.648438 C 432.117188 526.5 432.695312 526.308594 433.261719 526.070312 C 433.828125 525.832031 434.371094 525.550781 434.894531 525.230469 C 435.417969 524.910156 435.910156 524.546875 436.378906 524.148438 C 436.84375 523.753906 437.277344 523.320312 437.675781 522.855469 C 438.078125 522.390625 438.4375 521.894531 438.761719 521.375 C 439.085938 520.855469 439.367188 520.3125 439.609375 519.746094 C 439.847656 519.179688 440.042969 518.601562 440.195312 518.007812 C 440.503906 516.644531 440.660156 515.269531 440.660156 513.871094 L 440.660156 484.839844 C 440.660156 484.042969 441.105469 483.765625 441.816406 483.765625 L 454.199219 483.765625 C 455.121094 483.765625 455.433594 484.289062 455.398438 485.109375 C 455.359375 485.929688 455.398438 486.90625 455.398438 487.804688 Z M 467.972656 494.359375 L 467.972656 470.082031 C 467.972656 467.691406 467.972656 467.675781 470.441406 467.667969 L 481.019531 467.667969 C 482.167969 467.667969 482.703125 468.039062 482.621094 469.214844 C 482.574219 469.914062 482.621094 470.609375 482.621094 471.316406 L 482.621094 515.074219 C 482.621094 518.691406 483.398438 521.980469 486.273438 524.515625 C 487.75 525.796875 489.453125 526.589844 491.382812 526.902344 C 492.574219 527.117188 492.832031 527.644531 492.820312 528.6875 C 492.820312 532.480469 492.769531 536.28125 492.820312 540.074219 C 492.820312 541.308594 492.269531 541.625 491.171875 541.566406 C 490.386719 541.527344 489.605469 541.445312 488.828125 541.328125 C 488.050781 541.210938 487.277344 541.054688 486.515625 540.863281 C 485.75 540.671875 485 540.445312 484.257812 540.179688 C 483.515625 539.914062 482.789062 539.617188 482.074219 539.28125 C 481.363281 538.949219 480.667969 538.582031 479.992188 538.179688 C 479.3125 537.777344 478.65625 537.347656 478.019531 536.882812 C 477.382812 536.417969 476.773438 535.925781 476.183594 535.402344 C 475.59375 534.878906 475.03125 534.328125 474.496094 533.753906 C 473.960938 533.175781 473.453125 532.574219 472.976562 531.949219 C 472.496094 531.324219 472.050781 530.675781 471.632812 530.007812 C 471.21875 529.339844 470.835938 528.652344 470.484375 527.945312 C 470.136719 527.242188 469.820312 526.519531 469.539062 525.785156 C 469.257812 525.046875 469.011719 524.300781 468.804688 523.542969 C 468.59375 522.78125 468.421875 522.015625 468.285156 521.238281 C 468.152344 520.464844 468.054688 519.683594 467.992188 518.898438 C 467.933594 518.113281 467.910156 517.324219 467.925781 516.539062 C 468.023438 509.148438 467.960938 501.753906 467.960938 494.359375 Z M 262.171875 512.082031 L 262.171875 485.089844 C 262.171875 484.269531 262.449219 483.746094 263.367188 483.746094 L 273.953125 483.746094 C 274.316406 483.738281 274.644531 483.84375 274.9375 484.0625 C 275.226562 484.28125 275.421875 484.566406 275.515625 484.917969 C 275.785156 485.558594 276.007812 486.21875 276.179688 486.894531 C 276.40625 487.996094 276.894531 487.929688 277.597656 487.304688 C 281.296875 484.019531 285.6875 482.691406 290.546875 482.371094 C 291.667969 482.289062 292.042969 482.519531 292.042969 483.519531 L 292.042969 495.8125 C 292.042969 496.957031 291.347656 497.011719 290.472656 497.046875 C 289.699219 497.125 288.9375 497.261719 288.1875 497.457031 C 287.4375 497.648438 286.703125 497.898438 285.992188 498.207031 C 285.28125 498.511719 284.59375 498.871094 283.9375 499.28125 C 283.277344 499.691406 282.65625 500.148438 282.066406 500.65625 C 281.480469 501.160156 280.933594 501.710938 280.429688 502.300781 C 279.925781 502.890625 279.46875 503.511719 279.058594 504.171875 C 278.652344 504.832031 278.292969 505.519531 277.992188 506.234375 C 277.6875 506.945312 277.4375 507.679688 277.246094 508.429688 C 276.9375 509.691406 276.789062 510.972656 276.796875 512.269531 L 276.796875 538.957031 C 276.828125 539.804688 276.507812 540.246094 275.5625 540.246094 L 263.472656 540.246094 C 262.097656 540.246094 262.136719 539.371094 262.136719 538.441406 L 262.136719 524.945312 Z M 673.109375 485.160156 L 670.507812 485.160156 L 670.507812 492.242188 L 668.757812 492.242188 L 668.757812 485.160156 L 666.191406 485.160156 L 666.191406 483.738281 L 673.109375 483.738281 Z M 676.394531 483.738281 L 678.578125 489.910156 L 680.75 483.738281 L 683.046875 483.738281 L 683.046875 492.242188 L 681.289062 492.242188 L 681.289062 489.914062 L 681.464844 485.90625 L 679.167969 492.242188 L 677.9375 492.242188 L 675.65625 485.941406 L 675.835938 489.945312 L 675.835938 492.273438 L 674.082031 492.273438 L 674.082031 483.738281 Z M 676.394531 483.738281 "/></g></g></svg>